<svg xmlns="http://www.w3.org/2000/svg" viewBox="0 0 100 100">
  <style>
    @media (prefers-color-scheme: dark) {
      svg { fill: white; }
    }
  </style>
  <path d="M 31.855469 0.58007812 C 30.14326 0.58007812 28.665165 0.92576738 27.419922 1.6191406 C 26.17468 2.3125148 25.106323 3.3882035 24.214844 4.8457031 L 24.214844 1.1523438 L 20.287109 1.1523438 L 20.287109 24.925781 L 24.214844 24.925781 L 24.214844 11.488281 C 24.214844 9.1817524 24.802074 7.3579677 25.976562 6.0136719 C 27.151053 4.6552257 28.735251 3.9746094 30.730469 3.9746094 C 32.414376 3.9746094 33.66022 4.5271216 34.466797 5.6308594 C 35.273375 6.7204462 35.675781 8.4107463 35.675781 10.703125 L 35.675781 24.925781 L 39.603516 24.925781 L 39.603516 11.488281 C 39.603516 9.1676024 40.190744 7.3364836 41.365234 5.9921875 C 42.539724 4.6478917 44.138591 3.9746094 46.162109 3.9746094 C 47.817715 3.9746094 49.048891 4.5271216 49.855469 5.6308594 C 50.662046 6.7345965 51.064453 8.4248965 51.064453 10.703125 L 51.064453 24.925781 L 51.085938 24.925781 L 51.085938 29.871094 L 54.992188 29.871094 L 54.992188 24.925781 L 54.992188 10.576172 C 54.992188 7.3781632 54.318905 4.9158121 52.974609 3.1894531 C 51.630314 1.4489439 49.720475 0.58007812 47.244141 0.58007812 C 45.404578 0.58007812 43.805712 0.9971528 42.447266 1.8320312 C 41.08882 2.6669098 39.921696 3.9601842 38.945312 5.7148438 C 38.365143 4.0450867 37.466942 2.7718607 36.25 1.8945312 C 35.047209 1.0172012 33.581827 0.58007813 31.855469 0.58007812 z M 71.123047 0.58007812 C 69.849504 0.58007813 68.541562 0.72089667 67.197266 1.0039062 C 65.85297 1.2727653 64.466308 1.6825059 63.037109 2.234375 L 63.037109 5.84375 C 64.22575 5.1928283 65.462306 4.7043675 66.75 4.3789062 C 68.037693 4.053445 69.362256 3.890625 70.720703 3.890625 C 72.857426 3.890625 74.51301 4.3864191 75.6875 5.3769531 C 76.87614 6.3533361 77.470703 7.7399978 77.470703 9.5371094 L 77.470703 9.9179688 L 71.994141 9.9179688 C 68.442371 9.9179688 65.767814 10.598585 63.970703 11.957031 C 62.187742 13.315477 61.296875 15.331418 61.296875 18.005859 C 61.296875 20.298237 62.010254 22.13131 63.439453 23.503906 C 64.882802 24.862352 66.821977 25.541016 69.255859 25.541016 C 71.180325 25.541016 72.806573 25.200707 74.136719 24.521484 C 75.466864 23.828111 76.579223 22.759755 77.470703 21.316406 L 77.470703 24.925781 L 81.375 24.925781 L 81.375 11.361328 C 81.375 7.7388049 80.526183 5.0368664 78.828125 3.2539062 C 77.130068 1.4709455 74.561614 0.58007812 71.123047 0.58007812 z M 73.585938 12.974609 L 77.470703 12.974609 L 77.470703 13.845703 C 77.470703 16.39279 76.812088 18.436114 75.496094 19.978516 C 74.19425 21.506768 72.459946 22.271484 70.294922 22.271484 C 68.724219 22.271484 67.480329 21.869077 66.560547 21.0625 C 65.654916 20.241772 65.201172 19.136747 65.201172 17.75 C 65.201172 16.009491 65.810402 14.778315 67.027344 14.056641 C 68.244284 13.334966 70.43038 12.974609 73.585938 12.974609 z M 28.322266 33.605469 C 25.407268 33.605469 23.058352 34.717827 21.275391 36.939453 C 19.492431 39.161078 18.599609 42.109937 18.599609 45.789062 C 18.599609 49.454037 19.492431 52.397515 21.275391 54.619141 C 23.058352 56.840765 25.407268 57.953125 28.322266 57.953125 C 30.076926 57.953125 31.584357 57.605483 32.84375 56.912109 C 34.103143 56.218736 35.13483 55.172382 35.941406 53.771484 L 35.941406 55.703125 C 35.941406 58.405866 35.304793 60.421807 34.03125 61.751953 C 32.757707 63.096248 30.840534 63.767578 28.279297 63.767578 C 27.118957 63.767578 25.979215 63.619426 24.861328 63.322266 C 23.74344 63.025106 22.612986 62.565981 21.466797 61.943359 L 21.466797 65.742188 C 22.612986 66.166702 23.792825 66.477674 25.009766 66.675781 C 26.226708 66.888039 27.521935 66.994141 28.894531 66.994141 C 32.601958 66.994141 35.355234 66.004505 37.152344 64.023438 C 38.949455 62.056521 39.847656 59.048991 39.847656 55.001953 L 39.847656 34.179688 L 35.941406 34.179688 L 35.941406 37.787109 C 35.13483 36.386212 34.103143 35.339858 32.84375 34.646484 C 31.584357 33.95311 30.076926 33.605469 28.322266 33.605469 z M 73.416016 33.605469 C 69.70859 33.605469 66.787113 34.717827 64.650391 36.939453 C 62.527818 39.161078 61.464844 42.210659 61.464844 46.087891 C 61.464844 49.908521 62.520484 52.943433 64.628906 55.193359 C 66.737328 57.443285 69.580085 58.568359 73.160156 58.568359 C 74.476151 58.568359 75.71466 58.440255 76.875 58.185547 C 78.04949 57.930838 79.181898 57.54848 80.271484 57.039062 L 80.271484 53.431641 C 79.167746 54.040111 78.05734 54.499236 76.939453 54.810547 C 75.835715 55.107707 74.717976 55.255859 73.585938 55.255859 C 71.053002 55.255859 69.086444 54.456427 67.685547 52.857422 C 66.284649 51.244268 65.583984 48.98874 65.583984 46.087891 C 65.583984 43.187043 66.284649 40.936895 67.685547 39.337891 C 69.086444 37.724735 71.053002 36.917969 73.585938 36.917969 C 74.717976 36.917969 75.835715 37.073455 76.939453 37.384766 C 78.05734 37.681926 79.167746 38.133716 80.271484 38.742188 L 80.271484 35.091797 C 79.196048 34.59653 78.085642 34.228839 76.939453 33.988281 C 75.793264 33.733573 74.618806 33.605469 73.416016 33.605469 z M 51.085938 34.179688 L 51.085938 57.953125 L 54.992188 57.953125 L 54.992188 34.179688 L 51.085938 34.179688 z M 29.277344 36.875 C 31.385765 36.875 33.019349 37.654385 34.179688 39.210938 C 35.354177 40.767491 35.941406 42.958967 35.941406 45.789062 C 35.941406 48.605008 35.354177 50.793057 34.179688 52.349609 C 33.019349 53.906163 31.385765 54.683594 29.277344 54.683594 C 27.183072 54.683594 25.547537 53.906163 24.373047 52.349609 C 23.212707 50.793057 22.632812 48.605008 22.632812 45.789062 C 22.632812 42.958966 23.212707 40.767491 24.373047 39.210938 C 25.547537 37.654385 27.183072 36.875 29.277344 36.875 z M 69.316406 66.173828 L 69.316406 99.201172 L 73.222656 99.201172 L 73.222656 66.173828 L 69.316406 66.173828 z M 82.310547 66.173828 L 82.310547 99.201172 L 86.214844 99.201172 L 86.214844 66.173828 L 82.310547 66.173828 z M 27.644531 74.855469 C 23.937106 74.855469 21.013676 75.967832 18.876953 78.189453 C 16.75438 80.411082 15.693359 83.458705 15.693359 87.335938 C 15.693359 91.156569 16.747046 94.193432 18.855469 96.443359 C 20.96389 98.693289 23.808601 99.818359 27.388672 99.818359 C 28.704667 99.818359 29.943176 99.690267 31.103516 99.435547 C 32.278006 99.18084 33.410413 98.798476 34.5 98.289062 L 34.5 94.681641 C 33.396263 95.290116 32.285856 95.749234 31.167969 96.060547 C 30.064231 96.357702 28.944539 96.505859 27.8125 96.505859 C 25.279564 96.505859 23.313007 95.706425 21.912109 94.107422 C 20.511212 92.494269 19.810547 90.236788 19.810547 87.335938 C 19.810547 84.435094 20.511212 82.186905 21.912109 80.587891 C 23.313007 78.974738 25.279564 78.167969 27.8125 78.167969 C 28.944539 78.167969 30.064231 78.323454 31.167969 78.634766 C 32.285856 78.931929 33.396263 79.383719 34.5 79.992188 L 34.5 76.341797 C 33.424564 75.846533 32.314157 75.478839 31.167969 75.238281 C 30.021779 74.983575 28.847322 74.855469 27.644531 74.855469 z M 50.666016 74.855469 C 49.392472 74.855469 48.08453 74.998244 46.740234 75.28125 C 45.395938 75.550113 44.009276 75.959856 42.580078 76.511719 L 42.580078 80.119141 C 43.768718 79.468217 45.005275 78.981712 46.292969 78.65625 C 47.580663 78.330788 48.905226 78.167969 50.263672 78.167969 C 52.400395 78.167969 54.055979 78.661808 55.230469 79.652344 C 56.419109 80.62873 57.011719 82.015393 57.011719 83.8125 L 57.011719 84.195312 L 51.537109 84.195312 C 47.985339 84.195313 45.310783 84.873975 43.513672 86.232422 C 41.730711 87.590868 40.837891 89.608767 40.837891 92.283203 C 40.837891 94.575586 41.553223 96.406701 42.982422 97.779297 C 44.425771 99.137746 46.364945 99.818359 48.798828 99.818359 C 50.723293 99.818359 52.349543 99.478055 53.679688 98.798828 C 55.009833 98.105456 56.120238 97.037101 57.011719 95.59375 L 57.011719 99.201172 L 60.917969 99.201172 L 60.917969 85.638672 C 60.917969 82.016146 60.069151 79.314212 58.371094 77.53125 C 56.673036 75.748295 54.104582 74.855469 50.666016 74.855469 z M 53.128906 87.251953 L 57.011719 87.251953 L 57.011719 88.123047 C 57.011719 90.67013 56.355058 92.713455 55.039062 94.255859 C 53.737218 95.784108 52.002914 96.548828 49.837891 96.548828 C 48.267187 96.548828 47.023296 96.14642 46.103516 95.339844 C 45.197885 94.519118 44.744141 93.414089 44.744141 92.027344 C 44.744141 90.28683 45.353371 89.055656 46.570312 88.333984 C 47.787254 87.612312 49.973349 87.251953 53.128906 87.251953 z " />
</svg>
